<?xml version="1.0" encoding="utf-8"?>
<!-- Generator: Adobe Illustrator 23.0.1, SVG Export Plug-In . SVG Version: 6.00 Build 0)  -->
<svg version="1.2" baseProfile="tiny" id="Ebene_1" xmlns="http://www.w3.org/2000/svg" xmlns:xlink="http://www.w3.org/1999/xlink"
	 x="0px" y="0px" viewBox="0 0 36 36" xml:space="preserve">
<g>
	<path fill="#FFFFFF" d="M30.67,30.67H5.33V5.33h25.33V30.67z M8,28h20V8H8V28z"/>
</g>
<path fill="#FFFFFF" d="M34.56,31.33c0-1.04,0.59-1.93,1.44-2.38v-1.9c-0.85-0.46-1.44-1.35-1.44-2.38s0.59-1.93,1.44-2.38v-1.9
	c-0.85-0.46-1.44-1.35-1.44-2.38s0.59-1.93,1.44-2.38v-1.9c-0.85-0.46-1.44-1.35-1.44-2.38S35.15,9.41,36,8.95v-1.9
	c-0.85-0.46-1.44-1.35-1.44-2.38S35.15,2.74,36,2.28V0h-2.28c-0.46,0.85-1.35,1.44-2.38,1.44c-1.04,0-1.93-0.59-2.38-1.44h-1.9
	c-0.46,0.85-1.35,1.44-2.38,1.44c-1.04,0-1.93-0.59-2.38-1.44h-1.9C19.93,0.85,19.04,1.44,18,1.44S16.07,0.85,15.62,0h-1.9
	c-0.46,0.85-1.35,1.44-2.38,1.44S9.41,0.85,8.95,0h-1.9C6.59,0.85,5.7,1.44,4.67,1.44S2.74,0.85,2.28,0H0v2.28
	c0.85,0.46,1.44,1.35,1.44,2.38S0.85,6.59,0,7.05v1.9c0.85,0.46,1.44,1.35,1.44,2.38S0.85,13.26,0,13.72v1.9
	c0.85,0.46,1.44,1.35,1.44,2.38S0.85,19.93,0,20.38v1.9c0.85,0.46,1.44,1.35,1.44,2.38S0.85,26.59,0,27.05v1.9
	c0.85,0.46,1.44,1.35,1.44,2.38c0,1.04-0.59,1.93-1.44,2.38V36h2.28c0.46-0.85,1.35-1.44,2.38-1.44S6.59,35.15,7.05,36h1.9
	c0.46-0.85,1.35-1.44,2.38-1.44s1.93,0.59,2.38,1.44h1.9c0.46-0.85,1.35-1.44,2.38-1.44s1.93,0.59,2.38,1.44h1.9
	c0.46-0.85,1.35-1.44,2.38-1.44s1.93,0.59,2.38,1.44h1.9c0.46-0.85,1.35-1.44,2.38-1.44c1.04,0,1.93,0.59,2.38,1.44H36v-2.28
	C35.15,33.26,34.56,32.37,34.56,31.33z M33.33,33.33H2.67V2.67h30.67V33.33z"/>
</svg>
