<?xml version="1.0" encoding="utf-8"?>
<!-- Generator: Adobe Illustrator 23.0.0, SVG Export Plug-In . SVG Version: 6.00 Build 0)  -->
<svg version="1.2" baseProfile="tiny" id="Ebene_1" xmlns="http://www.w3.org/2000/svg" xmlns:xlink="http://www.w3.org/1999/xlink"
	 x="0px" y="0px" viewBox="0 0 50 50" xml:space="preserve">
<g>
	<path fill="none" stroke="#FFF36E" stroke-width="3" stroke-miterlimit="10" d="M46.85,27.93c0-2.41-1.96-4.37-4.37-4.37
		s-4.37,1.96-4.37,4.37c0-2.41-1.96-4.37-4.37-4.37s-4.37,1.96-4.37,4.37c0-2.41-1.96-4.37-4.37-4.37s-4.37,1.96-4.37,4.37
		c0-2.41-1.96-4.37-4.37-4.37s-4.37,1.96-4.37,4.37c0-2.41-1.96-4.37-4.37-4.37s-4.37,1.96-4.37,4.37C3.15,15.86,12.93,6.08,25,6.08
		S46.85,15.86,46.85,27.93z"/>
	<path fill="none" stroke="#FFF36E" stroke-width="3" stroke-miterlimit="10" d="M18.76,40.8c0,1.72,1.4,3.12,3.12,3.12
		c1.72,0,3.12-1.4,3.12-3.12V23.31"/>
</g>
</svg>
