<?xml version="1.0" encoding="utf-8"?>
<!-- Generator: Adobe Illustrator 22.1.0, SVG Export Plug-In . SVG Version: 6.00 Build 0)  -->
<svg version="1.2" baseProfile="tiny" id="Ebene_1" xmlns="http://www.w3.org/2000/svg" xmlns:xlink="http://www.w3.org/1999/xlink"
	 x="0px" y="0px" viewBox="0 0 185 156" xml:space="preserve">
<g>
	<polygon fill="#FFFFFF" points="51.37,100.03 49.21,92.11 48.24,92.37 51.08,102.79 56.34,92.47 55.45,92.01 	"/>
	<path fill="#FFFFFF" d="M77.98,63.43c21.44,0,30.27,14.51,30.36,14.65l0.8,1.35l0.13-1.57c0.01-0.18,1.39-18.46-8.5-29.21
		c-4.79-5.2-11.42-7.84-19.71-7.84c-29.24,0-34.25,17.46-34.96,21.02l-13.7-5.09l-0.35,0.94l9.9,3.69l4.39,19.88
		c-1.82,2.47-2.79,4.18-2.82,4.25l0.88,0.48C44.52,85.76,57.14,63.43,77.98,63.43z M47.59,60.08c0.28-0.85,0.68-1.87,1.25-3
		l2.57,0.96c0,0,0.44-4.06,3.62-8.62c5-4.12,13.05-7.6,26.01-7.6c8,0,14.38,2.53,18.97,7.51c4.63,5.02,6.7,11.76,7.62,17.42
		c-4.88-3.99-12.88-8.31-24.73-8.31c-9.87,0-17.86,4.86-23.62,10.09c-3.22,2.18-5.98,4.69-8.26,7.1L47.59,60.08z"/>
	<path fill="#FFFFFF" d="M98.01,87.91l-0.35-0.71c-0.03-0.06-0.29-0.64-0.81-1.53c-0.62-1.11-1.47-2.52-2.12-3.12l-0.09-0.08
		c-2.95-3.66-8.17-8.11-16.06-8.11c-4.78,0-8.72,1.65-11.8,3.76l-0.1,0.04c-0.11,0.05-2.16,0.99-5.22,4.77
		c-1.89,2.21-2.89,4.01-2.99,4.21l-0.48,0.76h0.08h39.9h0.04V87.91z M64.69,82.43c0.45-0.74,1.28-1.97,2.45-3.34
		c2.98-2.08,6.8-3.72,11.46-3.72c7.02,0,11.8,3.72,14.69,7.06H64.69z"/>
	<path fill="#FFFFFF" d="M160.49,97.93c0.01,0.46,0.04,2.09-0.1,3.98h-5.35l0.01,0.51c0.04,1.59-0.01,3.31-0.19,4.91
		c-1.25-3.35-1.26-9.48-1.26-9.48V87.37c3.53-0.02,7.27,0.14,11.23,0.53l0.55,0.05v-4.88c1.44,0.09,2.91,0.2,4.38,0.35l0.55,0.05
		V66.34l-0.42-0.07c-0.04-0.01-4.02-0.64-10.36-0.64c-1.79,0-3.62,0.05-5.43,0.15V35.93h-17.79l0.03,4.48h-4.97l0.22,29.06
		l-0.8,0.25c-0.22-6.37-3.25-46.2-44.82-46.2c-24.59,0-36.83,6.94-42.83,13.04l-3.92-21.79h-24.8l1.07,4.48h-6L36,130.49h25.99
		l1.96-4.98h2.64l7.97-20.27h6.72c-12.57,17.55-14.51,35.21-14.53,35.45l-0.05,0.55h72.13l-0.28-0.69
		c-0.02-0.06-0.68-1.67-1.76-4.29h6.23c0,0-8.35-20.61-15.44-36.04l0.02,0.04h0.98h1.77v-9.44c0.47-0.15,0.95-0.29,1.44-0.43
		l0.1,12.71c0.01,0.26,0.77,25.56,20.1,25.56c6.75,0,11.1-3.32,13.93-7.6c9.61-6.55,9.61-23.13,9.61-23.13
		S160.49,97.93,160.49,97.93z M136.36,41.41h11.82v28.95c-4.57,0.3-9.84,0.96-15.5,2.21l-0.07-2.71l-0.21-28.45H136.36z
		 M72.3,104.24l4.06-10.32l-0.93-0.37L61.3,129.49H36.79L10.77,20.24h5.67l17.07,0.19l3.79,21.49c-3.55,3.99-4.4,7.36-4.48,7.71
		l0.97,0.22c0.04-0.16,3.23-12.67,24.35-18.24c0.21-0.06,0.42-0.11,0.64-0.17c0.41-0.1,0.85-0.2,1.27-0.3
		c0.57-0.13,1.14-0.26,1.74-0.38c0.1-0.02,0.2-0.04,0.29-0.06c4.36-0.87,9.42-1.48,15.26-1.66c1.19-0.04,2.41-0.06,3.66-0.06
		c0.01,0,0.02,0,0.03,0c0.09,0,0.18,0,0.27,0c0.63,0,1.25,0.01,1.87,0.04c0.29,0.01,0.56,0.03,0.85,0.04
		c0.42,0.02,0.83,0.04,1.24,0.07c0.3,0.02,0.59,0.04,0.88,0.07c0.42,0.04,0.83,0.08,1.24,0.12c0.25,0.03,0.51,0.05,0.76,0.09
		c0.63,0.08,1.24,0.16,1.85,0.27c0.02,0,0.05,0.01,0.07,0.01c0.67,0.11,1.33,0.24,1.98,0.38c0.11,0.02,0.21,0.05,0.31,0.07
		c0.58,0.13,1.16,0.26,1.72,0.41c0.06,0.02,0.13,0.03,0.19,0.05c6.67,1.77,12.36,4.99,17,9.63c12.55,12.55,13.51,31.71,13.58,34.4
		c-7.81,2.42-16.07,6.06-24.11,11.52C92.81,91.57,86.7,97.88,82,104.24H72.3z M105.79,104.39c-10.39,10.52-13.35,21.95-13.38,22.06
		l-0.16,0.62h22.05l-8.32-20.87c0.64-0.85,1.32-1.72,2.05-2.59c2.71-2.53,6-5.08,9.98-7.4c1.2,2.37,2.6,5.31,4.17,8.73
		c6.28,13.66,13.62,31.58,15.13,35.29H67.79c0.61-4.42,5.73-34.34,33.55-53.25c8.48-5.76,17.21-9.48,25.38-11.86l4.55-1.21
		c16.91-4.04,30.58-2.58,33.12-2.24v11.34v3.84C133.2,83.92,115.31,94.75,105.79,104.39z M125.96,92.19v12.74h-2.75l0,0
		c-1.58-3.43-3.09-6.61-4.44-9.25C118.77,95.68,123.52,93,125.96,92.19z M111.23,122.09h-13.4c0,0,1.73-6.89,7.45-14.94
		L111.23,122.09z M151.95,127.66c-18.35,0-19.09-24.33-19.1-24.57l-0.1-12.98c4.58-1.26,9.71-2.17,15.42-2.54v14.76
		c0,2,0.18,12,3.69,12.11c0.72,0.03,1.38-0.24,1.93-0.79c2.09-2.07,2.3-7.85,2.26-10.74h13.98
		C169.91,106.46,168.43,127.66,151.95,127.66z"/>
</g>
</svg>
